<?xml version="1.0" standalone="no"?>
<!DOCTYPE svg PUBLIC "-//W3C//DTD SVG 20010904//EN"
 "http://www.w3.org/TR/2001/REC-SVG-20010904/DTD/svg10.dtd">
<svg version="1.0" xmlns="http://www.w3.org/2000/svg"
 width="501.000000pt" height="141.000000pt" viewBox="0 0 501.000000 141.000000"
 preserveAspectRatio="xMidYMid meet">

<g transform="translate(0.000000,141.000000) scale(0.100000,-0.100000)"
fill="#FFFF" stroke="none">
<path d="M742 1203 c-14 -5 -46 -62 -39 -69 6 -6 57 54 57 67 0 5 -1 9 -2 8
-2 0 -9 -3 -16 -6z"/>
<path d="M804 1191 c-48 -29 -51 -41 -10 -41 22 0 45 9 63 24 15 12 35 26 43
29 8 3 -3 6 -25 6 -23 1 -53 -7 -71 -18z"/>
<path d="M1162 1180 c30 -20 56 -30 76 -28 25 2 29 5 20 16 -20 23 -66 42
-104 42 l-37 0 45 -30z"/>
<path d="M1269 1192 c5 -9 19 -26 30 -36 12 -11 21 -27 21 -38 0 -10 4 -18 10
-18 14 0 -18 83 -37 98 -24 17 -35 15 -24 -6z"/>
<path d="M636 1128 c-9 -12 -16 -32 -16 -43 0 -18 2 -18 20 5 22 29 32 60 20
60 -5 0 -16 -10 -24 -22z"/>
<path d="M1360 1139 c0 -5 11 -27 25 -47 28 -41 35 -21 10 28 -15 29 -35 40
-35 19z"/>
<path d="M740 1115 c-25 -14 -24 -14 17 -15 48 0 75 8 67 21 -8 14 -56 10 -84
-6z"/>
<path d="M1206 1121 c-8 -13 19 -21 67 -21 l42 1 -34 14 c-38 17 -67 19 -75 6z"/>
<path d="M1450 1040 c10 -53 20 -62 20 -18 0 20 -6 41 -14 47 -11 9 -12 4 -6
-29z"/>
<path d="M562 1058 c-14 -14 -16 -68 -2 -68 9 0 26 67 18 75 -2 3 -10 -1 -16
-7z"/>
<path d="M665 1050 c-22 -15 -25 -20 -12 -20 20 0 87 26 87 34 0 13 -47 4 -75
-14z"/>
<path d="M1300 1056 c8 -8 33 -18 55 -21 l40 -7 -30 21 c-36 25 -89 30 -65 7z"/>
<path d="M1036 1043 c-4 -5 -13 -8 -19 -8 -7 0 -12 -14 -11 -33 0 -17 -4 -32
-9 -32 -5 0 -3 -7 4 -17 12 -14 12 -16 -1 -11 -9 3 -17 22 -21 49 l-6 44 -1
-53 c-1 -29 2 -51 7 -48 5 3 15 -2 22 -11 12 -15 12 -16 -4 -10 -16 6 -16 5
-1 -19 20 -29 14 -40 -14 -25 -12 6 -36 11 -54 11 l-33 0 41 -19 c72 -33 74
-39 74 -274 0 -182 -2 -208 -15 -203 -13 5 -13 1 0 -31 9 -20 17 -38 18 -39 1
-1 9 15 18 36 14 31 14 38 3 33 -12 -4 -14 30 -14 211 l0 215 28 26 c15 14 41
30 57 34 l30 9 -33 1 c-18 1 -42 -4 -54 -10 -26 -14 -36 -3 -20 21 9 14 9 20
1 20 -8 0 -8 5 1 15 7 8 9 15 4 15 -14 0 -10 75 5 93 13 17 11 24 -3 10z"/>
<path d="M2617 1043 c-12 -11 -8 -23 8 -23 8 0 15 7 15 15 0 16 -12 20 -23 8z"/>
<path d="M2730 1030 c-11 -11 -20 -29 -20 -40 0 -12 -7 -20 -17 -20 -17 -1
-17 -1 0 -14 14 -11 17 -29 17 -100 0 -51 4 -86 10 -86 6 0 10 37 10 90 0 89
0 90 25 90 14 0 25 5 25 10 0 6 -12 10 -26 10 -21 0 -25 4 -22 23 2 12 13 26
26 32 12 5 22 13 22 17 0 15 -30 8 -50 -12z"/>
<path d="M2826 1043 c-11 -11 -6 -23 9 -23 8 0 15 4 15 9 0 13 -16 22 -24 14z"/>
<path d="M1930 901 c0 -81 4 -131 10 -131 6 0 10 24 10 54 l0 54 55 7 c59 7
85 29 85 71 0 44 -32 67 -99 72 l-61 4 0 -131z m122 92 c41 -37 5 -93 -62 -93
l-40 0 0 55 0 55 42 0 c24 0 49 -7 60 -17z"/>
<path d="M3706 1014 c-19 -18 -21 -55 -4 -72 10 -10 6 -17 -17 -36 -38 -30
-41 -89 -6 -117 31 -25 91 -25 123 1 25 19 26 19 43 0 10 -11 25 -20 33 -20
11 0 8 8 -11 28 l-26 28 19 32 c23 37 24 42 10 42 -5 0 -17 -14 -26 -32 l-16
-32 -59 61 c-62 64 -73 95 -39 113 21 11 60 -2 60 -20 0 -6 5 -10 10 -10 15 0
12 16 -6 34 -8 9 -28 16 -44 16 -16 0 -36 -7 -44 -16z m64 -150 c43 -44 44
-46 26 -60 -31 -22 -92 -18 -110 8 -9 12 -16 28 -16 34 0 13 38 64 49 64 4 0
27 -21 51 -46z"/>
<path d="M635 996 c-16 -7 -39 -23 -50 -36 l-20 -22 39 16 c21 9 40 16 42 16
2 0 8 9 14 20 6 11 9 20 8 20 -2 -1 -16 -7 -33 -14z"/>
<path d="M1369 986 c12 -12 38 -28 58 -34 l37 -11 -25 24 c-13 14 -40 29 -58
35 l-34 9 22 -23z"/>
<path d="M503 965 c-9 -20 -10 -40 -4 -60 l8 -30 7 26 c4 14 6 41 4 60 l-3 34
-12 -30z"/>
<path d="M1510 943 c0 -29 5 -53 10 -53 13 0 13 70 0 90 -7 11 -10 0 -10 -37z"/>
<path d="M555 959 c-4 -6 -5 -12 -2 -15 2 -3 7 2 10 11 7 17 1 20 -8 4z"/>
<path d="M2155 945 c-19 -19 -25 -35 -25 -70 0 -86 81 -134 144 -84 l26 20 0
-20 c0 -12 5 -21 10 -21 6 0 10 40 10 100 0 60 -4 100 -10 100 -11 0 -14 -23
-10 -88 1 -34 -3 -49 -21 -68 -48 -51 -129 -16 -129 57 0 67 53 104 111 75 32
-16 41 -3 10 14 -36 19 -90 12 -116 -15z"/>
<path d="M2419 957 c-48 -37 -53 -115 -10 -158 38 -37 88 -39 128 -5 15 13 25
28 20 32 -4 4 -16 -2 -27 -14 -21 -22 -73 -30 -96 -14 -36 24 -44 97 -15 133
25 31 86 32 111 1 10 -12 21 -22 24 -22 13 0 5 21 -14 40 -23 23 -95 27 -121
7z"/>
<path d="M2620 870 c0 -60 4 -100 10 -100 6 0 10 40 10 100 0 60 -4 100 -10
100 -6 0 -10 -40 -10 -100z"/>
<path d="M2830 870 c0 -60 4 -100 10 -100 6 0 10 40 10 100 0 60 -4 100 -10
100 -6 0 -10 -40 -10 -100z"/>
<path d="M2939 957 c-48 -37 -53 -115 -10 -158 38 -37 88 -39 128 -5 15 13 25
28 20 32 -4 4 -16 -2 -27 -14 -21 -22 -73 -30 -96 -14 -18 12 -34 49 -34 80 0
39 27 70 67 78 26 5 37 1 58 -20 14 -14 28 -26 30 -26 12 0 3 22 -15 40 -23
23 -95 27 -121 7z"/>
<path d="M3140 895 c0 -67 3 -79 25 -100 28 -29 70 -32 103 -9 20 14 22 14 22
0 0 -9 5 -16 10 -16 6 0 10 40 10 100 0 60 -4 100 -10 100 -6 0 -10 -29 -10
-68 0 -83 -16 -112 -64 -112 -51 0 -66 24 -66 108 0 41 -4 72 -10 72 -6 0 -10
-32 -10 -75z"/>
<path d="M3386 954 c-34 -34 -17 -69 46 -90 27 -9 52 -22 55 -30 14 -38 -59
-60 -92 -28 -9 9 -19 13 -23 9 -12 -12 38 -45 68 -45 72 0 93 75 28 100 -73
27 -78 30 -78 50 0 12 10 25 25 32 22 10 30 8 56 -11 36 -27 45 -24 23 7 -18
27 -84 31 -108 6z"/>
<path d="M745 940 c-9 -15 14 -40 36 -40 18 0 19 1 3 25 -18 27 -29 31 -39 15z"/>
<path d="M1254 935 c-4 -9 -18 -22 -33 -29 l-26 -14 35 1 c36 2 67 28 55 47
-9 15 -25 12 -31 -5z"/>
<path d="M589 915 c-25 -13 -65 -63 -57 -70 6 -6 67 45 78 66 12 22 13 22 -21
4z"/>
<path d="M1420 908 c6 -13 27 -33 46 -46 l35 -23 -15 28 c-8 15 -28 36 -45 46
l-31 18 10 -23z"/>
<path d="M460 850 c0 -17 10 -50 21 -72 l21 -42 39 42 c44 46 53 73 17 50 -13
-8 -30 -30 -40 -49 -16 -34 -16 -34 -21 -9 -3 14 -9 42 -12 62 -7 47 -25 60
-25 18z"/>
<path d="M1508 853 c5 -21 7 -23 10 -9 2 10 0 22 -6 28 -6 6 -7 0 -4 -19z"/>
<path d="M512 850 c0 -14 2 -19 5 -12 2 6 2 18 0 25 -3 6 -5 1 -5 -13z"/>
<path d="M1546 848 c-3 -13 -7 -39 -10 -58 l-5 -35 19 35 c21 38 26 80 10 80
-5 0 -12 -10 -14 -22z"/>
<path d="M1450 827 c0 -15 20 -39 57 -71 l22 -19 -19 41 c-21 43 -60 75 -60
49z"/>
<path d="M1581 775 c-1 -11 -8 -29 -16 -39 -8 -11 -15 -30 -15 -42 0 -23 -22
-48 -33 -37 -4 3 -7 16 -7 27 0 12 -9 32 -20 46 -18 23 -20 23 -20 5 0 -11 13
-39 28 -62 l28 -42 33 48 c25 37 31 56 28 82 -2 19 -5 25 -6 14z"/>
<path d="M440 744 c0 -21 11 -43 33 -69 l33 -38 27 41 c15 23 27 49 27 58 0
30 -29 -5 -41 -48 -8 -33 -13 -37 -25 -28 -8 7 -14 20 -14 29 -1 9 -9 32 -20
51 l-19 35 -1 -31z"/>
<path d="M1460 654 c0 -12 6 -36 14 -55 13 -30 14 -31 21 -10 4 14 0 32 -14
54 -18 28 -21 29 -21 11z"/>
<path d="M542 635 c-7 -14 -12 -38 -11 -53 1 -24 3 -23 21 17 12 26 16 47 11
52 -6 6 -14 -1 -21 -16z"/>
<path d="M1551 624 c-12 -15 -21 -32 -21 -40 0 -7 -6 -15 -12 -17 -9 -4 -9 -6
-1 -6 15 -1 63 56 63 75 0 20 -6 18 -29 -12z"/>
<path d="M450 628 c0 -14 50 -68 63 -68 4 0 1 7 -7 16 -9 8 -16 22 -16 29 0 8
-9 19 -20 25 -15 8 -20 8 -20 -2z"/>
<path d="M2917 603 c-12 -11 -8 -23 8 -23 8 0 15 7 15 15 0 16 -12 20 -23 8z"/>
<path d="M630 596 c0 -11 69 -44 102 -50 44 -8 114 8 148 34 l25 20 -137 0
c-76 0 -138 -2 -138 -4z"/>
<path d="M1140 585 c19 -23 108 -46 151 -39 20 4 55 17 76 30 l38 23 -139 1
c-122 0 -137 -2 -126 -15z"/>
<path d="M3420 543 l0 -56 -23 21 c-27 26 -82 29 -114 7 -12 -8 -27 -31 -33
-50 -31 -94 68 -173 144 -114 l26 20 0 -20 c0 -12 5 -21 10 -21 6 0 10 52 10
135 0 83 -4 135 -10 135 -5 0 -10 -26 -10 -57z m-47 -35 c32 -17 46 -39 47
-74 1 -94 -121 -118 -150 -29 -14 42 2 83 40 102 31 16 36 16 63 1z"/>
<path d="M1438 556 c-3 -17 -1 -41 4 -55 l10 -26 9 23 c6 15 4 34 -4 55 l-14
32 -5 -29z"/>
<path d="M1895 568 c-3 -7 -23 -62 -45 -122 -44 -121 -43 -116 -32 -116 5 0
15 15 24 33 14 30 19 32 72 35 56 2 57 2 72 -33 8 -19 19 -35 25 -35 7 0 8 7
4 18 -4 9 -22 58 -40 107 -18 50 -36 98 -40 108 -8 20 -33 23 -40 5z m55 -103
l19 -55 -55 0 c-29 0 -54 2 -54 5 0 2 8 26 18 52 11 26 22 57 26 68 7 19 8 19
17 2 6 -9 19 -42 29 -72z"/>
<path d="M566 546 c-3 -13 -3 -39 1 -58 7 -32 7 -32 14 -8 10 37 10 90 0 90
-5 0 -12 -11 -15 -24z"/>
<path d="M1532 534 c-12 -8 -27 -24 -32 -34 -10 -18 -9 -19 13 -9 22 10 52 47
45 55 -2 2 -14 -3 -26 -12z"/>
<path d="M477 525 c3 -9 19 -23 35 -31 32 -16 32 -8 0 29 -19 21 -44 23 -35 2z"/>
<path d="M2077 512 c-33 -36 -12 -73 52 -89 39 -10 57 -32 48 -57 -8 -21 -65
-21 -89 1 -10 9 -21 13 -26 9 -11 -12 38 -46 67 -46 37 0 71 26 71 55 0 27 -8
33 -64 55 -51 20 -68 46 -42 66 28 20 52 18 76 -8 11 -12 23 -19 26 -15 4 4
-1 16 -11 27 -24 26 -85 27 -108 2z"/>
<path d="M2267 512 c-33 -36 -12 -73 52 -89 39 -10 57 -32 48 -57 -8 -21 -65
-21 -89 1 -10 9 -21 13 -26 9 -11 -12 38 -46 67 -46 37 0 71 26 71 55 0 27 -8
33 -64 55 -51 20 -68 46 -42 66 28 20 52 18 76 -8 11 -12 23 -19 26 -15 4 4
-1 16 -11 27 -24 26 -85 27 -108 2z"/>
<path d="M2466 499 c-80 -95 37 -224 132 -144 36 30 47 75 28 120 -17 41 -42
55 -94 55 -33 0 -45 -6 -66 -31z m125 -5 c22 -20 29 -60 17 -96 -12 -33 -35
-48 -77 -48 -76 0 -99 131 -28 160 27 11 66 4 88 -16z"/>
<path d="M2705 505 c-20 -19 -25 -34 -25 -74 0 -43 4 -53 31 -75 41 -35 91
-35 126 0 31 31 22 46 -10 16 -30 -28 -80 -29 -108 -1 -15 15 -19 30 -17 66 5
80 75 108 128 51 11 -12 23 -18 27 -15 3 4 -4 18 -17 32 -33 35 -101 35 -135
0z"/>
<path d="M2920 430 c0 -60 4 -100 10 -100 6 0 10 40 10 100 0 60 -4 100 -10
100 -6 0 -10 -40 -10 -100z"/>
<path d="M3016 499 c-30 -35 -33 -76 -11 -119 28 -53 91 -67 139 -29 l26 20 0
-20 c0 -12 5 -21 10 -21 6 0 10 40 10 100 0 60 -4 100 -10 100 -5 0 -10 -10
-10 -22 l0 -21 -23 21 c-16 15 -36 22 -64 22 -34 0 -46 -6 -67 -31z m125 -8
c55 -56 23 -141 -54 -141 -41 0 -66 24 -74 73 -5 31 -1 40 25 67 38 38 65 38
103 1z"/>
<path d="M3525 504 c-58 -63 -13 -174 70 -174 55 0 95 44 95 105 0 64 -31 95
-95 95 -37 0 -51 -5 -70 -26z m128 -16 c24 -29 22 -86 -5 -115 -27 -29 -80
-31 -108 -3 -22 22 -27 78 -9 111 22 42 89 46 122 7z"/>
<path d="M3757 512 c-33 -36 -12 -73 52 -89 39 -10 57 -32 48 -57 -8 -21 -65
-21 -89 1 -10 9 -21 13 -26 9 -11 -12 38 -46 67 -46 37 0 71 26 71 55 0 27 -8
33 -64 55 -51 20 -68 46 -42 66 28 20 52 18 76 -8 11 -12 23 -19 26 -15 4 4
-1 16 -11 27 -24 26 -85 27 -108 2z"/>
<path d="M616 466 c-4 -16 -1 -37 8 -54 l15 -27 0 40 c1 52 -14 77 -23 41z"/>
<path d="M1399 485 c-13 -20 -19 -70 -10 -84 8 -12 11 -10 16 11 8 30 3 87 -6
73z"/>
<path d="M510 440 c11 -21 27 -32 63 -48 27 -12 28 -11 14 8 -8 12 -31 29 -50
39 -33 17 -36 17 -27 1z"/>
<path d="M1488 439 c-20 -10 -40 -23 -43 -29 -22 -35 47 -9 70 27 9 12 14 23
13 22 -2 -1 -20 -10 -40 -20z"/>
<path d="M670 396 c0 -29 39 -82 40 -53 0 18 -27 77 -35 77 -3 0 -5 -11 -5
-24z"/>
<path d="M1336 398 c-9 -12 -16 -33 -16 -46 0 -20 3 -22 14 -13 15 13 32 69
23 77 -3 3 -12 -5 -21 -18z"/>
<path d="M610 386 c0 -2 7 -9 15 -16 9 -7 15 -8 15 -2 0 5 -7 12 -15 16 -8 3
-15 4 -15 2z"/>
<path d="M1405 380 c-3 -6 1 -7 9 -4 18 7 21 14 7 14 -6 0 -13 -4 -16 -10z"/>
<path d="M1278 353 c-37 -43 -48 -98 -13 -62 13 13 39 79 31 79 -2 0 -10 -8
-18 -17z"/>
<path d="M593 334 c33 -28 93 -36 66 -8 -9 8 -34 19 -55 24 l-39 9 28 -25z"/>
<path d="M741 333 c5 -15 19 -38 30 -49 16 -17 17 -23 7 -27 -9 -4 -7 -6 5 -6
22 -1 21 5 -6 58 -27 52 -54 70 -36 24z"/>
<path d="M1421 350 c-18 -4 -40 -15 -49 -24 -15 -15 -14 -16 8 -16 14 0 39 11
55 25 17 13 28 24 25 24 -3 -1 -20 -5 -39 -9z"/>
<path d="M1170 279 c-22 -23 -40 -46 -40 -53 0 -8 2 -8 8 0 4 6 17 16 29 23
20 10 61 71 48 71 -3 0 -23 -19 -45 -41z"/>
<path d="M1310 308 c0 -4 4 -8 9 -8 6 0 12 4 15 8 3 5 -1 9 -9 9 -8 0 -15 -4
-15 -9z"/>
<path d="M698 303 c7 -3 16 -2 19 1 4 3 -2 6 -13 5 -11 0 -14 -3 -6 -6z"/>
<path d="M822 288 c17 -25 58 -55 58 -42 0 13 -49 64 -62 64 -6 0 -5 -8 4 -22z"/>
<path d="M640 284 c0 -10 63 -34 87 -34 42 0 13 22 -42 30 -25 4 -45 5 -45 4z"/>
<path d="M910 259 c7 -11 25 -25 41 -31 16 -5 29 -14 29 -19 0 -5 5 -9 12 -9
7 0 -6 18 -27 40 -43 44 -74 55 -55 19z"/>
<path d="M1089 268 c-8 -7 -25 -25 -37 -39 -19 -22 -21 -27 -8 -32 10 -4 13
-1 9 9 -3 9 4 18 24 24 32 12 63 50 40 50 -7 0 -20 -6 -28 -12z"/>
<path d="M1290 265 l-25 -14 36 -1 c19 0 44 7 55 15 18 14 18 14 -11 14 -16 0
-41 -6 -55 -14z"/>
<path d="M1230 260 c0 -5 5 -10 11 -10 5 0 7 5 4 10 -3 6 -8 10 -11 10 -2 0
-4 -4 -4 -10z"/>
<path d="M775 221 l-30 -7 25 -7 c35 -10 70 -9 70 2 0 7 -28 24 -33 20 -1 -1
-15 -4 -32 -8z"/>
<path d="M1195 220 c-18 -7 -19 -8 -2 -15 15 -6 94 2 86 9 -11 9 -67 13 -84 6z"/>
<path d="M880 184 l-35 -13 45 0 c25 -1 52 4 60 9 9 6 10 10 3 10 -6 0 -17 2
-25 4 -7 2 -29 -2 -48 -10z"/>
<path d="M1086 191 c-18 -7 -18 -8 -2 -14 10 -4 36 -7 59 -7 l42 1 -40 14
c-22 8 -40 14 -40 14 0 0 -9 -4 -19 -8z"/>
<path d="M940 145 c-29 -30 -31 -35 -14 -35 13 0 25 12 36 35 8 19 15 35 14
35 -1 0 -17 -16 -36 -35z"/>
<path d="M1061 155 c17 -41 24 -47 44 -43 13 2 9 10 -20 38 l-37 35 13 -30z"/>
</g>
</svg>
